<svg width="20" height="20" viewBox="0 0 20 20" fill="none" xmlns="http://www.w3.org/2000/svg">
<path fill-rule="evenodd" clip-rule="evenodd" d="M9.7998 15C10.2416 15 10.5998 14.6418 10.5998 14.2V10.7273H14.0725C14.4742 10.7273 14.7998 10.4017 14.7998 10C14.7998 9.59834 14.4742 9.27273 14.0725 9.27273H10.5998V5.8C10.5998 5.35817 10.2416 5 9.7998 5C9.35798 5 8.9998 5.35817 8.9998 5.8V9.27273H5.52708C5.12542 9.27273 4.7998 9.59834 4.7998 10C4.7998 10.4017 5.12542 10.7273 5.52708 10.7273H8.9998V14.2C8.9998 14.6418 9.35798 15 9.7998 15Z" fill="#595CFF"/>
</svg>
